# xmcd
#
# Track frame offsets: 
#        150
#        14257
#        28000
#        43610
#        58877
#        74382
#        89402
#        101980
#        116025
#        130477
#        144397
#        159472
#        174500
#        190505
#        205067
#        219057
#        233730
#        247557
#        261142
#        274525
#        288517
#        303397
#        317897
#
# Disc length: 4399 seconds
#
# Revision: 4
# Processed by: cddbd v1.5.2PL0 Copyright (c) Steve Scherf et al.
# Submitted via: ExactAudioCopy v1.1
#
DISCID=47112d17
DTITLE=Jimmie Rodgers - The Singing Brakeman - Disc 1
DYEAR=1992
DGENRE=Country
TTITLE0=The Soldier's Sweetheart (mono)
TTITLE1=Sleep, Baby, Sleep (mono)
TTITLE2=Ben Dewberry's Final Run (mono)
TTITLE3=Mother Was A Lady (mono)
TTITLE4=Blue Yodel (mono)
TTITLE5=Away Out On The Mountain (mono)
TTITLE6=Dear Old Sunny South By The Sea (mono)
TTITLE7=Treasures Untold (mono)
TTITLE8=The Brakeman's Blues (mono)
TTITLE9=The Sailor's Plea (mono)
TTITLE10=In The Jailhouse Now (mono)
TTITLE11=Blue Yodel #2 (mono)
TTITLE12=Memphis Yodel (mono)
TTITLE13=Blue Yodel #3 (mono)
TTITLE14=My Old Pal (mono)
TTITLE15=Mississippi Moon (mono)
TTITLE16=My Little Old Home Down In New Orleans (mono)
TTITLE17=You And My Old Guitar (mono)
TTITLE18=Daddy And Home (mono)
TTITLE19=My Little Lady (mono)
TTITLE20=I'm Lonely And Blue (mono)
TTITLE21=Lullaby Yodel (mono)
TTITLE22=Never No Mo' Blues (mono)
EXTD=Bear Family Records BCD 15540\n6 CD Boxed Set with book/discograp
EXTD=hy\n1992  Recorded Aug 1927 - May 1933\nTitles include release ye
EXTD=ar. YEAR: 1992
EXTT0=
EXTT1=
EXTT2=
EXTT3=
EXTT4=
EXTT5=
EXTT6=
EXTT7=
EXTT8=
EXTT9=
EXTT10=
EXTT11=
EXTT12=
EXTT13=
EXTT14=
EXTT15=
EXTT16=
EXTT17=
EXTT18=
EXTT19=
EXTT20=
EXTT21=
EXTT22=
PLAYORDER=
